<?xml version="1.0" encoding="UTF-8"?>
<!DOCTYPE svg PUBLIC "-//W3C//DTD SVG 1.1//EN" "http://www.w3.org/Graphics/SVG/1.1/DTD/svg11.dtd">
<svg xmlns="http://www.w3.org/2000/svg" version="1.1" width="128px" height="128px" style="shape-rendering:geometricPrecision; text-rendering:geometricPrecision; image-rendering:optimizeQuality; fill-rule:evenodd; clip-rule:evenodd" xmlns:xlink="http://www.w3.org/1999/xlink">
<g><path style="opacity:0.936" fill="#f9ab00" d="M 23.5,50.5 C 20.2297,45.5603 16.2297,41.2269 11.5,37.5C 15.8262,31.9953 21.4928,28.4953 28.5,27C 40.0087,24.7108 50.5087,26.8775 60,33.5C 60.6667,34.5 60.6667,35.5 60,36.5C 56.9155,41.0002 54.0821,45.6669 51.5,50.5C 42.1808,42.714 32.8474,42.714 23.5,50.5 Z"/></g>
<g><path style="opacity:0.944" fill="#f9ab00" d="M 116.5,37.5 C 112.82,42.1794 108.486,46.1794 103.5,49.5C 91.7295,41.6028 81.5628,43.2695 73,54.5C 70.1972,62.5725 71.3638,69.9058 76.5,76.5C 72.1028,80.8918 68.1028,85.5584 64.5,90.5C 49.55,73.9574 48.7167,56.624 62,38.5C 75.2395,25.8489 90.4062,23.0156 107.5,30C 111.275,31.6114 114.275,34.1114 116.5,37.5 Z"/></g>
<g><path style="opacity:0.945" fill="#e87109" d="M 11.5,37.5 C 16.2297,41.2269 20.2297,45.5603 23.5,50.5C 21.0017,54.4994 19.335,58.8327 18.5,63.5C 19.1957,68.2609 20.8623,72.5942 23.5,76.5C 20.2297,81.4397 16.2297,85.7731 11.5,89.5C 3.57444,82.7463 -0.0922232,74.0796 0.5,63.5C -0.0922232,52.9204 3.57444,44.2537 11.5,37.5 Z"/></g>
<g><path style="opacity:0.951" fill="#e7700a" d="M 116.5,37.5 C 121.936,42.0417 125.602,47.7083 127.5,54.5C 127.5,60.5 127.5,66.5 127.5,72.5C 115.937,99.5274 96.6034,107.027 69.5,95C 67.7605,93.483 66.0938,91.983 64.5,90.5C 68.1028,85.5584 72.1028,80.8918 76.5,76.5C 84.4636,82.4757 92.7969,82.9757 101.5,78C 109.995,69.0456 110.662,59.5456 103.5,49.5C 108.486,46.1794 112.82,42.1794 116.5,37.5 Z"/></g>
<g><path style="opacity:0.939" fill="#f9ab00" d="M 23.5,76.5 C 32.8186,84.4936 42.152,84.4936 51.5,76.5C 54.0821,81.3331 56.9155,85.9998 60,90.5C 60.6667,91.5 60.6667,92.5 60,93.5C 50.5087,100.123 40.0087,102.289 28.5,100C 21.4928,98.5047 15.8262,95.0047 11.5,89.5C 16.2297,85.7731 20.2297,81.4397 23.5,76.5 Z"/></g>
</svg>
