<?xml version="1.0" encoding="UTF-8"?>
<!DOCTYPE svg PUBLIC "-//W3C//DTD SVG 1.1//EN" "http://www.w3.org/Graphics/SVG/1.1/DTD/svg11.dtd">
<svg xmlns="http://www.w3.org/2000/svg" version="1.1" width="416px" height="480px" style="shape-rendering:geometricPrecision; text-rendering:geometricPrecision; image-rendering:optimizeQuality; fill-rule:evenodd; clip-rule:evenodd" xmlns:xlink="http://www.w3.org/1999/xlink">
<g><path style="opacity:0.994" fill="#a1c535" d="M 205.5,-0.5 C 206.167,-0.5 206.833,-0.5 207.5,-0.5C 207.5,30.5 207.5,61.5 207.5,92.5C 164.967,116.929 122.634,141.596 80.5,166.5C 80.1667,166.5 79.8333,166.5 79.5,166.5C 53.1978,150.344 26.5311,134.677 -0.5,119.5C -0.5,119.167 -0.5,118.833 -0.5,118.5C 68.529,79.3235 137.196,39.6568 205.5,-0.5 Z"/></g>
<g><path style="opacity:0.997" fill="#acd339" d="M 207.5,-0.5 C 208.167,-0.5 208.833,-0.5 209.5,-0.5C 277.804,39.6568 346.471,79.3235 415.5,118.5C 415.5,118.833 415.5,119.167 415.5,119.5C 388.798,135.182 362.131,150.848 335.5,166.5C 335.167,166.5 334.833,166.5 334.5,166.5C 292.366,141.596 250.033,116.929 207.5,92.5C 207.5,61.5 207.5,30.5 207.5,-0.5 Z"/></g>
<g><path style="opacity:1" fill="#f0f5e1" d="M 207.5,92.5 C 250.033,116.929 292.366,141.596 334.5,166.5C 292.004,190.581 249.67,214.914 207.5,239.5C 165.33,214.914 122.996,190.581 80.5,166.5C 122.634,141.596 164.967,116.929 207.5,92.5 Z"/></g>
<g><path style="opacity:1" fill="#a5073e" d="M -0.5,119.5 C 26.5311,134.677 53.1978,150.344 79.5,166.5C 79.5,215.167 79.5,263.833 79.5,312.5C 53.1978,328.656 26.5311,344.323 -0.5,359.5C -0.5,279.5 -0.5,199.5 -0.5,119.5 Z"/></g>
<g><path style="opacity:1" fill="#1b6ac5" d="M 415.5,119.5 C 415.5,199.5 415.5,279.5 415.5,359.5C 389.358,343.926 363.025,328.593 336.5,313.5C 335.5,264.505 335.167,215.505 335.5,166.5C 362.131,150.848 388.798,135.182 415.5,119.5 Z"/></g>
<g><path style="opacity:0.999" fill="#fefefe" d="M 79.5,166.5 C 79.8333,166.5 80.1667,166.5 80.5,166.5C 122.996,190.581 165.33,214.914 207.5,239.5C 207.5,288.5 207.5,337.5 207.5,386.5C 164.833,361.833 122.167,337.167 79.5,312.5C 79.5,263.833 79.5,215.167 79.5,166.5 Z"/></g>
<g><path style="opacity:1" fill="#cddae5" d="M 334.5,166.5 C 334.833,215.505 334.5,264.505 333.5,313.5C 291.483,337.861 249.483,362.194 207.5,386.5C 207.5,337.5 207.5,288.5 207.5,239.5C 249.67,214.914 292.004,190.581 334.5,166.5 Z"/></g>
<g><path style="opacity:0.997" fill="#ea205e" d="M 79.5,312.5 C 122.167,337.167 164.833,361.833 207.5,386.5C 207.5,417.5 207.5,448.5 207.5,479.5C 206.833,479.5 206.167,479.5 205.5,479.5C 137.196,439.343 68.529,399.677 -0.5,360.5C -0.5,360.167 -0.5,359.833 -0.5,359.5C 26.5311,344.323 53.1978,328.656 79.5,312.5 Z"/></g>
<g><path style="opacity:0.997" fill="#2f90e7" d="M 334.5,166.5 C 334.833,166.5 335.167,166.5 335.5,166.5C 335.167,215.505 335.5,264.505 336.5,313.5C 363.025,328.593 389.358,343.926 415.5,359.5C 415.5,359.833 415.5,360.167 415.5,360.5C 346.471,399.677 277.804,439.343 209.5,479.5C 208.833,479.5 208.167,479.5 207.5,479.5C 207.5,448.5 207.5,417.5 207.5,386.5C 249.483,362.194 291.483,337.861 333.5,313.5C 334.5,264.505 334.833,215.505 334.5,166.5 Z"/></g>
</svg>
