<?xml version="1.0" encoding="utf-8"?><!-- Uploaded to: SVG Repo, www.svgrepo.com, Generator: SVG Repo Mixer Tools -->
<svg fill="#000000" width="800px" height="800px" viewBox="0 0 24 24" id="football-field" data-name="Flat Color" xmlns="http://www.w3.org/2000/svg" class="icon flat-color"><rect id="primary" x="2" y="4" width="20" height="16" rx="1" style="fill: rgb(0, 0, 0);"></rect><path id="secondary" d="M22,16H18a1,1,0,0,1-1-1V9a1,1,0,0,1,1-1h4ZM6,8H2v8H6a1,1,0,0,0,1-1V9A1,1,0,0,0,6,8Zm7,2.89V4H11v6.89a1.48,1.48,0,0,0,0,2.22V20h2V13.11a1.48,1.48,0,0,0,0-2.22Z" style="fill: rgb(44, 169, 188);"></path></svg>